<?xml version="1.0" encoding="UTF-8" standalone="no"?>
<!-- Created with Inkscape (http://www.inkscape.org/) -->

<svg
   width="254.94388mm"
   height="257.32565mm"
   viewBox="0 0 254.94388 257.32565"
   version="1.1"
   id="svg5"
   xml:space="preserve"
   inkscape:version="1.2 (dc2aeda, 2022-05-15)"
   sodipodi:docname="eastCoastCollections.svg"
   xmlns:inkscape="http://www.inkscape.org/namespaces/inkscape"
   xmlns:sodipodi="http://sodipodi.sourceforge.net/DTD/sodipodi-0.dtd"
   xmlns="http://www.w3.org/2000/svg"
   xmlns:svg="http://www.w3.org/2000/svg"><sodipodi:namedview
     id="namedview7"
     pagecolor="#ffffff"
     bordercolor="#999999"
     borderopacity="1"
     inkscape:showpageshadow="0"
     inkscape:pageopacity="0"
     inkscape:pagecheckerboard="0"
     inkscape:deskcolor="#d1d1d1"
     inkscape:document-units="mm"
     showgrid="false"
     inkscape:zoom="0.32510186"
     inkscape:cx="376.80498"
     inkscape:cy="379.88094"
     inkscape:window-width="1390"
     inkscape:window-height="847"
     inkscape:window-x="0"
     inkscape:window-y="25"
     inkscape:window-maximized="0"
     inkscape:current-layer="g847" /><defs
     id="defs2" /><g
     inkscape:label="Layer 1"
     inkscape:groupmode="layer"
     id="layer1"
     transform="translate(28.125518,-7.8299048)"><g
       id="g1411"
       transform="matrix(0.41341146,0,0,0.41341146,346.70983,-328.66339)"><g
         id="_x30_1" /><g
         id="_x30_2" /><g
         id="_x30_3" /><g
         id="_x30_4" /><g
         id="_x30_5" /><g
         id="_x30_6" /><g
         id="_x30_7" /><g
         id="_x30_8" /><g
         id="_x30_9" /><g
         id="_x31_0" /><g
         id="_x31_1" /><g
         id="_x31_2" /><g
         id="_x31_3" /><g
         id="_x31_4" /><g
         id="_x31_5" /><g
         id="_x31_6" /><g
         id="_x31_7" /><g
         id="_x31_8" /><g
         id="_x31_9" /><g
         id="_x32_0" /><g
         id="_x32_1" /><g
         id="_x32_2" /><g
         id="_x32_3" /><g
         id="_x32_4" /><g
         id="_x32_5" /><g
         id="_x32_6" /><g
         id="_x32_7" /><g
         id="_x32_8" /><g
         id="_x32_9" /><g
         id="_x33_0" /><g
         id="_x33_1" /><g
         id="_x33_2" /><g
         id="_x33_3" /><g
         id="_x33_4" /><g
         id="_x33_5" /><g
         id="_x33_6" /><g
         id="_x33_7" /><g
         id="_x33_8" /><g
         id="_x33_9" /><g
         id="_x34_0" /><g
         id="_x34_1" /><g
         id="_x34_2" /><g
         id="_x34_3" /><g
         id="_x34_4" /><g
         id="_x34_5" /><g
         id="_x34_6" /><g
         id="_x34_7" /><g
         id="_x34_8" /><g
         id="_x34_9" /><g
         id="_x35_0">









<g
   id="g847"
   transform="translate(-831.30418,903.5915)">

<path
   clip-rule="evenodd"
   d="m 78.224347,156.09439 c -26.377,33.266 -35.837,74.99 -36.351,121.173 v 76.934 h 11.574 c 7.858,0 14.26,6.43 14.26,14.26 v 0.887 h 29.264 c 0.657,-21.52 18.288993,-38.753 39.979993,-38.753 21.662,0 39.322,17.233 39.951,38.753 h 132.687 c 0.629,-21.52 18.289,-38.753 39.951,-38.753 21.69,0 39.323,17.233 39.98,38.753 h 36.036 v -0.887 c 0,-7.83 6.431,-14.26 14.261,-14.26 h 11.574 v -78.134 c 2.143,-39.981 -6.173,-79.991 -26.635,-119.973 z"
   fill="#dbbeb9"
   fill-rule="evenodd"
   stroke="#6c6caa"
   stroke-linecap="round"
   stroke-linejoin="round"
   stroke-miterlimit="10"
   stroke-width="20.1764"
   id="path815"
   style="fill:#e59572;fill-opacity:1;stroke:#2694ab;stroke-width:24.189;stroke-dasharray:none;stroke-opacity:1" />

<path
   clip-rule="evenodd"
   d="m 164.24334,124.60139 h 307.754 c -11.889,-18.891 -31.722,-31.178998 -63.015,-33.922998 h -182.954 c -26.663,2.201 -48.039,12.316998 -61.785,33.922998 z"
   fill="#f5d8b3"
   fill-rule="evenodd"
   stroke="#6c6caa"
   stroke-linecap="round"
   stroke-linejoin="round"
   stroke-miterlimit="10"
   stroke-width="20.1764"
   id="path817"
   style="fill:#e59572;fill-opacity:1;stroke:#2694ab;stroke-width:24.189;stroke-dasharray:none;stroke-opacity:1" />

<path
   clip-rule="evenodd"
   d="m 96.799347,215.13739 h 52.526993 c 7.458,0 13.546,6.116 13.546,13.575 v 21.348 c 0,7.459 -6.088,13.547 -13.546,13.547 H 96.800347 c -7.486,0 -13.574,-6.088 -13.574,-13.547 v -21.348 c -0.001,-7.459 6.087,-13.575 13.573,-13.575 z"
   fill="#dcf2ff"
   fill-rule="evenodd"
   stroke="#6c6caa"
   stroke-linecap="round"
   stroke-linejoin="round"
   stroke-miterlimit="10"
   stroke-width="20.1764"
   id="path819"
   style="fill:#e59572;fill-opacity:1;stroke:#2694ab;stroke-width:24.189;stroke-dasharray:none;stroke-opacity:1" />

<path
   clip-rule="evenodd"
   d="m 347.36934,215.13739 h 52.526 c 7.458,0 13.546,6.116 13.546,13.575 v 21.348 c 0,7.459 -6.088,13.547 -13.546,13.547 h -52.526 c -7.487,0 -13.574,-6.088 -13.574,-13.547 v -21.348 c -0.001,-7.459 6.086,-13.575 13.574,-13.575 z"
   fill="#dcf2ff"
   fill-rule="evenodd"
   stroke="#6c6caa"
   stroke-linecap="round"
   stroke-linejoin="round"
   stroke-miterlimit="10"
   stroke-width="20.1764"
   id="path821"
   style="fill:#e59572;fill-opacity:1;stroke:#2694ab;stroke-width:24.189;stroke-dasharray:none;stroke-opacity:1" />

<path
   clip-rule="evenodd"
   d="m 225.85634,215.13739 h 52.526 c 7.487,0 13.574,6.116 13.574,13.575 v 21.348 c 0,7.459 -6.087,13.547 -13.574,13.547 h -52.526 c -7.458,0 -13.545,-6.088 -13.545,-13.547 v -21.348 c 0,-7.459 6.087,-13.575 13.545,-13.575 z"
   fill="#dcf2ff"
   fill-rule="evenodd"
   stroke="#6c6caa"
   stroke-linecap="round"
   stroke-linejoin="round"
   stroke-miterlimit="10"
   stroke-width="20.1764"
   id="path823"
   style="fill:#e59572;fill-opacity:1;stroke:#2694ab;stroke-width:24.189;stroke-dasharray:none;stroke-opacity:1" />

<line
   fill="none"
   stroke="#6c6caa"
   stroke-linecap="round"
   stroke-linejoin="round"
   stroke-miterlimit="10"
   stroke-width="20.1764"
   x1="59.477348"
   x2="369.86035"
   y1="187.61639"
   y2="187.61639"
   id="line825"
   style="fill:#e59572;fill-opacity:1;stroke:#2694ab;stroke-width:24.189;stroke-dasharray:none;stroke-opacity:1" />

<line
   fill="none"
   stroke="#6c6caa"
   stroke-linecap="round"
   stroke-linejoin="round"
   stroke-miterlimit="10"
   stroke-width="20.1764"
   x1="329.02234"
   x2="348.39835"
   y1="301.81641"
   y2="301.81641"
   id="line827"
   style="stroke:#2694ab;stroke-width:24.189;stroke-dasharray:none;stroke-opacity:1" />

<path
   clip-rule="evenodd"
   d="m 462.99534,354.20039 h -23.177 c -7.83,0 -14.261,6.43 -14.261,14.26 v 1.772 c 0,7.859 6.431,14.261 14.261,14.261 h 23.177 c 7.83,0 14.231,-6.401 14.231,-14.261 v -1.772 c 0,-7.83 -6.401,-14.26 -14.231,-14.26 z"
   fill="#f5d8b3"
   fill-rule="evenodd"
   stroke="#6c6caa"
   stroke-linecap="round"
   stroke-linejoin="round"
   stroke-miterlimit="10"
   stroke-width="20.1764"
   id="path829"
   style="fill:#e59572;fill-opacity:1;stroke:#2694ab;stroke-width:24.189;stroke-dasharray:none;stroke-opacity:1" />

<path
   clip-rule="evenodd"
   d="m 53.448347,354.20039 h -23.149 c -7.859,0 -14.259999,6.43 -14.259999,14.26 v 1.772 c 0,7.859 6.399999,14.261 14.259999,14.261 h 23.148 c 7.858,0 14.26,-6.401 14.26,-14.261 v -1.772 c 0,-7.83 -6.401,-14.26 -14.259,-14.26 z"
   fill="#f5d8b3"
   fill-rule="evenodd"
   stroke="#6c6caa"
   stroke-linecap="round"
   stroke-linejoin="round"
   stroke-miterlimit="10"
   stroke-width="20.1764"
   id="path831"
   style="fill:#e59572;fill-opacity:1;stroke:#2694ab;stroke-width:24.189;stroke-dasharray:none;stroke-opacity:1" />

<path
   d="m 444.73334,271.20839 c 2.115,0 4.144,0.429 6.059,1.2 v 46.068 c -1.915,0.771 -3.943,1.2 -6.059,1.2 -10.717,0 -19.376,-10.859 -19.376,-24.234 0,-13.375 8.659,-24.234 19.376,-24.234 z"
   fill="none"
   stroke="#6c6caa"
   stroke-linecap="round"
   stroke-linejoin="round"
   stroke-miterlimit="10"
   stroke-width="20.1764"
   id="path833"
   style="fill:#e59572;fill-opacity:1;stroke:#2694ab;stroke-width:24.189;stroke-dasharray:none;stroke-opacity:1" />

<path
   clip-rule="evenodd"
   d="m 136.95234,410.55739 c 22.004,0 39.98,-17.976 39.98,-39.981 0,-22.034 -17.977,-39.981 -39.98,-39.981 -22.033,0 -39.979993,17.947 -39.979993,39.981 -0.001,22.005 17.945993,39.981 39.979993,39.981 z"
   fill="#f9e5d3"
   fill-rule="evenodd"
   stroke="#6c6caa"
   stroke-linecap="round"
   stroke-linejoin="round"
   stroke-miterlimit="10"
   stroke-width="20.1764"
   id="path835"
   style="fill:#e59572;fill-opacity:1;stroke:#2694ab;stroke-width:24.189;stroke-dasharray:none;stroke-opacity:1" />

<path
   clip-rule="evenodd"
   d="m 349.54034,410.55739 c 22.033,0 39.98,-17.976 39.98,-39.981 0,-22.034 -17.947,-39.981 -39.98,-39.981 -22.005,0 -39.979,17.947 -39.979,39.981 0,22.005 17.975,39.981 39.979,39.981 z"
   fill="#f9e5d3"
   fill-rule="evenodd"
   stroke="#6c6caa"
   stroke-linecap="round"
   stroke-linejoin="round"
   stroke-miterlimit="10"
   stroke-width="20.1764"
   id="path837"
   style="fill:#e59572;fill-opacity:1;stroke:#2694ab;stroke-width:24.189;stroke-dasharray:none;stroke-opacity:1" />

<line
   fill="none"
   stroke="#6c6caa"
   stroke-linecap="round"
   stroke-linejoin="round"
   stroke-miterlimit="10"
   stroke-width="20.1764"
   x1="136.95235"
   x2="136.95235"
   y1="370.57541"
   y2="370.3194"
   id="line839"
   style="stroke:none;stroke-width:24.189;stroke-dasharray:none;stroke-opacity:1" />

<line
   fill="none"
   stroke="#6c6caa"
   stroke-linecap="round"
   stroke-linejoin="round"
   stroke-miterlimit="10"
   stroke-width="20.1764"
   x1="349.54034"
   x2="349.54034"
   y1="370.80441"
   y2="370.57541"
   id="line841"
   style="stroke:none;stroke-width:24.189;stroke-dasharray:none;stroke-opacity:1" />

<line
   fill="none"
   stroke="#6c6caa"
   stroke-linecap="round"
   stroke-linejoin="round"
   stroke-miterlimit="10"
   stroke-width="20.1764"
   x1="249.06235"
   x2="249.06235"
   y1="99.166389"
   y2="156.09439"
   id="line843"
   style="fill:#e59572;fill-opacity:1;stroke:#2694ab;stroke-width:24.189;stroke-dasharray:none;stroke-opacity:1" />

<line
   fill="none"
   stroke="#6c6caa"
   stroke-linecap="round"
   stroke-linejoin="round"
   stroke-miterlimit="10"
   stroke-width="20.1764"
   x1="384.74835"
   x2="384.74835"
   y1="96.737389"
   y2="156.09439"
   id="line845"
   style="fill:#e59572;fill-opacity:1;stroke:#2694ab;stroke-width:24.189;stroke-dasharray:none;stroke-opacity:1" />

<text
   xml:space="preserve"
   style="font-style:normal;font-variant:normal;font-weight:normal;font-stretch:normal;font-size:145.906px;font-family:'White Rainbow - Personal Use';-inkscape-font-specification:'White Rainbow - Personal Use, Normal';font-variant-ligatures:normal;font-variant-caps:normal;font-variant-numeric:normal;font-variant-east-asian:normal;font-feature-settings:'ss01';text-align:center;text-anchor:middle;fill:#2694ab;fill-opacity:1;stroke:#2694ab;stroke-width:4.8378;stroke-linecap:round;stroke-linejoin:bevel;stroke-miterlimit:13.2;stroke-dasharray:none;stroke-opacity:1;paint-order:fill markers stroke"
   x="46.752132"
   y="130.29913"
   id="text3098"
   transform="scale(0.96434741,1.0369707)"><tspan
     sodipodi:role="line"
     id="tspan3096"
     style="font-style:normal;font-variant:normal;font-weight:normal;font-stretch:normal;font-size:145.906px;font-family:'White Rainbow - Personal Use';-inkscape-font-specification:'White Rainbow - Personal Use, Normal';font-variant-ligatures:normal;font-variant-caps:normal;font-variant-numeric:normal;font-variant-east-asian:normal;font-feature-settings:'ss01';fill:#2694ab;fill-opacity:1;stroke:#2694ab;stroke-width:4.8378;stroke-dasharray:none;stroke-opacity:1"
     x="46.752132"
     y="130.29913">East</tspan></text><text
   xml:space="preserve"
   style="font-style:normal;font-variant:normal;font-weight:normal;font-stretch:normal;font-size:160.21px;font-family:'White Rainbow - Personal Use';-inkscape-font-specification:'White Rainbow - Personal Use, Normal';font-variant-ligatures:normal;font-variant-caps:normal;font-variant-numeric:normal;font-variant-east-asian:normal;font-feature-settings:'ss01', 'ss03';text-align:center;text-anchor:middle;fill:#2694ab;fill-opacity:1;stroke:#2694ab;stroke-width:4.8378;stroke-linecap:round;stroke-linejoin:bevel;stroke-miterlimit:13.2;stroke-dasharray:none;stroke-opacity:1;paint-order:fill markers stroke"
   x="327.10544"
   y="74.662567"
   id="text3102"
   transform="scale(1.1092789,0.90148655)"><tspan
     sodipodi:role="line"
     id="tspan3100"
     style="font-style:normal;font-variant:normal;font-weight:normal;font-stretch:normal;font-size:160.21px;font-family:'White Rainbow - Personal Use';-inkscape-font-specification:'White Rainbow - Personal Use, Normal';font-variant-ligatures:normal;font-variant-caps:normal;font-variant-numeric:normal;font-variant-east-asian:normal;font-feature-settings:'ss01', 'ss03';fill:#2694ab;fill-opacity:1;stroke:#2694ab;stroke-width:4.8378;stroke-dasharray:none;stroke-opacity:1"
     x="327.10544"
     y="74.662567">Coast</tspan></text><g
   aria-label="Collections"
   transform="matrix(1.5512258,0,0,1.8018132,-199.79534,-360.72672)"
   id="text3106"
   style="font-size:74.9127px;font-family:'White Rainbow - Personal Use';-inkscape-font-specification:'White Rainbow - Personal Use, Normal';text-align:center;text-anchor:middle;fill:#2694ab;fill-opacity:1;stroke:#2694ab;stroke-width:2.98166;stroke-linecap:round;stroke-linejoin:bevel;stroke-miterlimit:13.2;stroke-dasharray:none;stroke-opacity:1;paint-order:fill markers stroke"><path
     d="m 122.1735,480.32742 q -0.0749,3.97038 -2.09756,7.19162 -2.02264,3.22125 -5.39371,5.09407 -3.37107,1.7979 -7.49127,1.7979 -3.97037,0 -7.341445,-1.94773 -3.296158,-1.94773 -5.243888,-5.24389 -1.947731,-3.37107 -1.947731,-7.34144 v -33.41107 q 0,-3.97037 1.947731,-7.26653 1.94773,-3.37107 5.243888,-5.3188 3.371075,-1.94773 7.341445,-1.94773 4.19511,0 7.64109,1.94773 3.44599,1.94773 5.39372,5.3188 1.94773,3.29616 1.94773,7.26653 v 4.79442 q 0,2.32229 -1.12369,4.27002 -1.12369,1.94773 -3.14633,3.07142 -2.09756,1.1986 -4.56968,1.1986 -2.69686,0 -5.01915,-1.42334 -2.77177,-1.64808 -4.27002,-4.7195 -1.49826,-3.07142 -1.42334,-7.04179 l 8.91461,0.14983 q -0.0749,1.64807 0.37456,2.84668 0.44948,1.1986 1.34843,1.27351 v -4.41985 q 0,-2.3972 -1.72299,-4.04528 -1.64808,-1.64808 -4.19511,-1.64808 -2.39721,0 -4.1202,1.64808 -1.723,1.64808 -1.723,4.04528 v 33.41107 q 0,2.32229 1.64808,3.97037 1.64808,1.64808 4.04529,1.64808 2.69686,0 4.27002,-1.42334 1.64808,-1.49826 1.79791,-3.74564 l -0.97387,-2.47212 h 10.86234 z"
     id="path1089"
     style="fill:#2694ab;fill-opacity:1;stroke:#2694ab;stroke-width:2.98166;stroke-dasharray:none;stroke-opacity:1" /><path
     d="m 146.74472,442.4216 q 1.79791,1.7979 2.77177,4.19511 1.04878,2.39721 1.04878,4.94424 v 29.89016 q 0,2.54704 -1.04878,4.94424 -0.97386,2.39721 -2.77177,4.19511 -1.87281,1.87282 -4.27002,2.84669 -2.32229,0.89895 -4.86933,0.89895 -2.54703,0 -5.01915,-0.97387 -2.3972,-0.97386 -4.19511,-2.77177 -1.7979,-1.7979 -2.77177,-4.1202 -0.97386,-2.3972 -0.97386,-5.01915 v -29.89016 q 0,-2.62195 0.97386,-4.94424 0.97387,-2.39721 2.77177,-4.19511 1.87282,-1.87282 4.19511,-2.77177 2.39721,-0.97387 4.86933,-0.97387 2.62194,0 5.01915,0.97387 2.47212,0.97386 4.27002,2.77177 z m -13.25954,11.31182 q 3.44598,5.61845 8.16548,7.41635 v -9.58882 q 0,-1.87282 -1.27352,-2.9216 -1.1986,-1.12369 -2.84668,-1.12369 -1.64808,0 -2.84668,1.04878 -1.1986,1.04878 -1.1986,2.99651 z m 8.16548,16.70553 q -4.49476,-0.97387 -8.16548,-3.67072 v 14.68288 q 0,1.87282 1.1986,2.9216 1.27351,1.04878 2.92159,1.04878 1.64808,0 2.84669,-1.04878 1.1986,-1.04878 1.1986,-2.9216 z"
     id="path1091"
     style="fill:#2694ab;fill-opacity:1;stroke:#2694ab;stroke-width:2.98166;stroke-dasharray:none;stroke-opacity:1" /><path
     d="m 161.87703,484.59745 q 2.32229,-0.29965 5.24389,-0.29965 3.14633,0 6.14284,0.29965 2.99651,0.29965 5.01915,0.67421 2.02264,0.29965 2.69686,0.44948 l -1.87282,8.68987 q -2.17247,-0.44948 -5.39371,-0.82404 -3.22125,-0.37456 -6.4425,-0.37456 -5.01915,0 -8.46513,1.04878 l -5.76828,-4.27003 v -49.14273 l -0.97386,-2.47212 h 10.86234 l -0.97387,2.39721 z"
     id="path1093"
     style="fill:#2694ab;fill-opacity:1;stroke:#2694ab;stroke-width:2.98166;stroke-dasharray:none;stroke-opacity:1" /><path
     d="m 192.29145,484.59745 q 2.3223,-0.29965 5.24389,-0.29965 3.14633,0 6.14284,0.29965 2.99651,0.29965 5.01915,0.67421 2.02265,0.29965 2.69686,0.44948 l -1.87282,8.68987 q -2.17247,-0.44948 -5.39371,-0.82404 -3.22125,-0.37456 -6.44249,-0.37456 -5.01915,0 -8.46514,1.04878 l -5.76828,-4.27003 v -49.14273 l -0.97386,-2.47212 h 10.86234 l -0.97387,2.39721 z"
     id="path1095"
     style="fill:#2694ab;fill-opacity:1;stroke:#2694ab;stroke-width:2.98166;stroke-dasharray:none;stroke-opacity:1" /><path
     d="m 223.60483,461.44942 h 4.79441 l 2.3972,-0.97386 v 10.86234 l -2.47211,-0.97386 -4.79442,-0.0749 v 15.20728 h 10.56269 l 2.24738,-0.89895 v 9.73865 l -21.64977,0.0749 v -47.41974 l -3.29615,-5.54354 q 2.9965,-1.72299 6.81705,-2.54703 3.82055,-0.82404 7.71601,-0.97386 3.89546,-0.14983 10.48778,-0.14983 v 9.88848 l -2.54704,-0.97387 h -2.84668 q -5.01915,0 -7.41635,0.29965 z"
     id="path1097"
     style="fill:#2694ab;fill-opacity:1;stroke:#2694ab;stroke-width:2.98166;stroke-dasharray:none;stroke-opacity:1" /><path
     d="m 255.96709,450.73691 q -0.37456,-1.49826 -1.64808,-2.47212 -1.27352,-1.04878 -2.84668,-1.04878 -1.87282,0 -3.29616,1.34843 -1.34843,1.34843 -1.34843,3.29616 v 29.06613 q 0,1.87281 1.34843,3.22124 1.34843,1.34843 3.29616,1.34843 1.64808,0 2.92159,-1.04878 1.27352,-1.04878 1.57317,-2.62194 l -0.97386,-2.39721 h 9.96338 q 0,4.56968 -1.72299,7.94075 -1.72299,3.37107 -4.79441,5.24389 -3.07142,1.7979 -6.96688,1.7979 -3.67072,0 -6.81706,-1.7979 -3.07142,-1.87282 -4.94424,-4.94424 -1.7979,-3.07142 -1.7979,-6.74214 V 451.8606 q 0,-3.67072 1.7979,-6.74214 1.87282,-3.07142 4.94424,-4.86933 3.14634,-1.87282 6.81706,-1.87282 3.89546,0 6.96688,1.87282 3.07142,1.79791 4.7195,5.16898 1.72299,3.37107 1.72299,7.79092 h -9.88847 z"
     id="path1099"
     style="fill:#2694ab;fill-opacity:1;stroke:#2694ab;stroke-width:2.98166;stroke-dasharray:none;stroke-opacity:1" /><path
     d="m 295.07141,448.26479 -2.47212,-1.04878 h -7.41636 v 44.72288 l 0.97387,2.47212 h -10.86235 l 0.97387,-2.47212 0.0749,-44.64797 h -7.41635 l -2.47212,1.04878 v -9.96339 l 28.61665,-0.0749 z"
     id="path1101"
     style="fill:#2694ab;fill-opacity:1;stroke:#2694ab;stroke-width:2.98166;stroke-dasharray:none;stroke-opacity:1" /><path
     d="m 306.45802,492.23854 0.97387,2.17247 h -10.78743 l 0.89895,-2.02264 v -51.53994 l -0.97386,-2.24738 h 10.86234 l -0.97387,2.09756 z"
     id="path1103"
     style="fill:#2694ab;fill-opacity:1;stroke:#2694ab;stroke-width:2.98166;stroke-dasharray:none;stroke-opacity:1" /><path
     d="m 331.02931,442.4216 q 1.79791,1.7979 2.77177,4.19511 1.04878,2.39721 1.04878,4.94424 v 29.89016 q 0,2.54704 -1.04878,4.94424 -0.97386,2.39721 -2.77177,4.19511 -1.87281,1.87282 -4.27002,2.84669 -2.32229,0.89895 -4.86933,0.89895 -2.54703,0 -5.01915,-0.97387 -2.3972,-0.97386 -4.19511,-2.77177 -1.7979,-1.7979 -2.77177,-4.1202 -0.97386,-2.3972 -0.97386,-5.01915 v -29.89016 q 0,-2.62195 0.97386,-4.94424 0.97387,-2.39721 2.77177,-4.19511 1.87282,-1.87282 4.19511,-2.77177 2.39721,-0.97387 4.86933,-0.97387 2.62194,0 5.01915,0.97387 2.47212,0.97386 4.27002,2.77177 z m -13.25954,11.31182 q 3.44598,5.61845 8.16548,7.41635 v -9.58882 q 0,-1.87282 -1.27352,-2.9216 -1.1986,-1.12369 -2.84668,-1.12369 -1.64808,0 -2.84668,1.04878 -1.1986,1.04878 -1.1986,2.99651 z m 8.16548,16.70553 q -4.49476,-0.97387 -8.16548,-3.67072 v 14.68288 q 0,1.87282 1.1986,2.9216 1.27351,1.04878 2.92159,1.04878 1.64808,0 2.84669,-1.04878 1.1986,-1.04878 1.1986,-2.9216 z"
     id="path1105"
     style="fill:#2694ab;fill-opacity:1;stroke:#2694ab;stroke-width:2.98166;stroke-dasharray:none;stroke-opacity:1" /><path
     d="m 355.4508,492.0138 q -0.29965,-12.51042 -2.54703,-21.72468 -2.17247,-9.21426 -6.66723,-16.18114 v 37.83091 l 0.97387,2.47212 h -10.86234 l 0.97386,-2.39721 v -53.33784 q 1.12369,-0.29965 2.39721,-0.29965 7.94074,0 15.73166,13.78394 v -11.08708 l -0.97386,-2.47212 h 10.86234 l -0.97386,2.47212 v 50.86572 l 0.97386,2.47212 h -10.86234 z"
     id="path1107"
     style="fill:#2694ab;fill-opacity:1;stroke:#2694ab;stroke-width:2.98166;stroke-dasharray:none;stroke-opacity:1" /><path
     d="m 382.94372,462.94768 q 3.37107,2.09755 5.61845,4.04528 2.3223,1.87282 4.04529,4.94424 1.72299,3.07142 1.72299,7.26653 0,4.27003 -1.7979,7.79092 -1.79791,3.44599 -4.94424,5.46863 -3.07142,1.94773 -6.81706,1.94773 -3.52089,0 -6.44249,-1.72299 -2.84668,-1.79791 -4.56967,-5.01915 -1.64808,-3.22125 -1.79791,-7.41636 h 10.18813 l -0.89895,2.24738 q 0.37456,1.42334 1.27351,2.24738 0.97387,0.74913 2.24738,0.74913 1.87282,0 3.22125,-1.57317 1.42334,-1.57316 1.49825,-4.56967 0,-2.84668 -1.64808,-4.56968 -1.57316,-1.7979 -5.61845,-4.34493 -3.37107,-2.09756 -5.69336,-3.97038 -2.3223,-1.94773 -4.04529,-5.01915 -1.64808,-3.07142 -1.64808,-7.26653 0,-5.16897 2.09756,-8.68987 2.17247,-3.59581 5.54354,-5.3188 3.37107,-1.79791 7.1167,-1.79791 6.29267,0 9.81357,3.89546 3.59581,3.82055 3.67072,10.93726 h -9.96339 l 1.04878,-2.47212 q -0.22474,-1.79791 -1.64808,-2.62195 -1.34843,-0.82404 -2.9216,-0.82404 -2.62194,-0.0749 -4.27002,1.87282 -1.57317,1.94773 -1.57317,5.09407 0,2.77177 1.57317,4.41984 1.57317,1.64808 5.61845,4.27003 z"
     id="path1109"
     style="fill:#2694ab;fill-opacity:1;stroke:#2694ab;stroke-width:2.98166;stroke-dasharray:none;stroke-opacity:1" /></g><path
   style="fill:#fdc4b6;fill-opacity:1;stroke:none;stroke-width:16.3364;stroke-linecap:round;stroke-linejoin:bevel;stroke-miterlimit:13.2;stroke-dasharray:none;stroke-opacity:1;paint-order:fill markers stroke"
   d="m 350.29474,434.4114 c -69.57781,0.21586 -139.17161,-0.13356 -208.73832,0.88641 -5.74971,9.58787 10.68807,5.25525 15.25058,6.77053 142.1749,2.70025 284.43725,-1.1742 426.58518,2.59409 11.23593,-0.93293 26.90162,3.50678 25.01846,17.68796 0.16447,12.52985 -10.84817,23.49902 -23.61664,19.58979 -152.02898,0.59485 -304.09147,-1.28797 -456.09905,1.203 -8.33545,-1.04959 -15.98054,2.3077 -16.13649,11.71998 -13.887664,42.19809 -15.59259,86.72141 -15.153477,130.75657 -0.11349,25.88317 -0.09514,51.76675 -0.15248,77.6501 15.666997,0.55077 26.219977,12.16127 36.917117,21.70029 15.23936,6.25274 16.98932,-16.42828 24.87874,-24.20336 24.4454,-35.7616 77.82504,-45.24763 112.8281,-19.58135 16.15573,10.31505 26.55465,27.15006 32.84805,44.89486 57.79574,0.0217 115.59147,0.0456 173.38721,0.0717 12.5299,-41.43585 59.58894,-69.75109 101.8112,-56.41827 27.4329,7.39471 47.88977,30.35419 57.62127,56.37185 11.97187,0.79561 25.84122,1.35955 32.54412,-10.79317 6.39826,-8.32887 17.01774,-9.77826 25.96778,-12.09326 4.17507,-10.09157 -2.76355,-19.19416 -12.75594,-21.56522 -37.02139,-21.5927 -34.56499,-82.65434 2.79854,-102.82427 7.75225,-1.82704 13.20885,-7.4669 10.76362,-16.00192 -2.37103,-44.46604 -15.83283,-87.57015 -32.89025,-128.43325 -104.55911,0.008 -209.11823,-0.0176 -313.67732,0.0169 z M 229.6113,486.59598 c 20.49175,-1.83659 45.24087,3.63665 52.99924,25.29662 3.24542,22.31018 8.15494,47.89292 -3.05602,68.69302 -7.82447,15.161 -24.49858,21.35904 -40.80344,19.8027 -29.91264,-0.36538 -60.3717,2.79583 -89.94293,-2.18412 -19.0784,-6.09266 -28.2827,-26.38439 -26.1481,-45.34562 -1.26495,-20.77167 -3.0278,-46.50531 17.16153,-59.33167 12.84525,-11.88902 31.9712,-4.17909 47.81212,-6.72012 13.99148,-0.20251 27.98476,-0.3893 41.9776,-0.21081 z m 175.42173,0.74712 c 20.34402,1.81542 42.60101,-3.82892 61.8001,4.2548 14.93574,8.75146 21.66144,25.69291 19.40827,42.5142 -0.53234,20.20455 4.70551,46.16882 -15.68534,58.8538 -21.38859,13.16793 -48.19689,5.63825 -71.9643,7.73712 -22.14266,-1.94526 -51.68445,5.8125 -66.3588,-16.01878 -13.25473,-19.5815 -9.54961,-45.61995 -6.78742,-67.7855 4.73818,-16.70574 20.66966,-33.39037 39.10782,-29.55564 13.49323,0 26.98645,0 40.47967,0 z m 246.16197,0 c 17.24726,10.05658 27.78701,28.61689 26.20765,48.7223 2.15784,22.65049 -1.25242,51.3731 -24.82738,61.64494 -33.92848,4.10795 -68.58721,2.58682 -102.76094,1.97966 -24.19796,-0.13651 -39.5258,-25.86372 -36.3872,-48.16615 0.30783,-20.248 -2.21827,-45.189 17.41366,-57.83232 15.88581,-11.04877 37.10512,-4.26247 55.17729,-6.34178 21.72563,-0.0142 43.45128,-0.003 65.17692,-0.007 z m -86.434,135.07292 c 10.18091,7.90894 15.06752,22.47671 5.17919,32.87759 -12.89879,8.97362 -30.78001,4.74729 -45.77284,5.70684 -18.53147,-1.49025 -24.61582,-29.9483 -6.57637,-37.14928 15.43936,-2.82762 31.53037,-0.80531 47.17002,-1.43515 z"
   id="path2736"
   transform="matrix(0.64,0,0,0.64,-7.3514054,-108.58841)" /><path
   style="fill:#ea7070;fill-opacity:1;stroke:none;stroke-width:2.87871;stroke-linecap:round;stroke-linejoin:bevel;stroke-miterlimit:13.2;stroke-dasharray:none;stroke-opacity:1;paint-order:fill markers stroke"
   d="m 631.60634,337.98651 c 0,2.47539 0,4.95079 0,7.42618 23.54798,-0.008 47.09596,-0.0159 70.64394,-0.0238 -9.57855,-5.7122 -20.40081,-9.03653 -31.18033,-11.66688 -12.8874,-3.29431 -26.25673,-3.29607 -39.46361,-3.16168 0,2.47539 0,4.95078 0,7.42618 z"
   id="path13139"
   transform="matrix(0.64,0,0,0.64,-7.3514054,-108.58841)" /><path
   style="fill:#ea7070;fill-opacity:1;stroke:none;stroke-width:12.0828;stroke-linecap:round;stroke-linejoin:bevel;stroke-miterlimit:13.2;stroke-dasharray:none;stroke-opacity:1;paint-order:fill markers stroke"
   d="m 419.59515,338.07381 c -3.20765,13.0648 14.74606,4.96825 22.37841,7.19306 50.61783,0 101.23565,0 151.85348,0 2.66911,-12.25986 -1.91711,-17.26439 -14.38612,-14.38612 -53.28192,0 -106.56385,0 -159.84577,0 0,2.39768 0,4.79537 0,7.19306 z"
   id="path13141"
   transform="matrix(0.64,0,0,0.64,-7.3514054,-108.58841)" /><path
   style="fill:#ea7070;fill-opacity:1;stroke:none;stroke-width:4.24477;stroke-linecap:round;stroke-linejoin:bevel;stroke-miterlimit:13.2;stroke-dasharray:none;stroke-opacity:1;paint-order:fill markers stroke"
   d="m 371.60408,330.75698 c -18.86815,0.14156 -38.22606,3.88689 -54.66314,13.44205 -1.58983,1.54964 5.06159,0.39566 3.53782,0.93713 20.36085,0.40124 40.72897,0.13775 61.09279,0.21558 0,-4.86675 0,-9.7335 0,-14.60024 -3.32249,0.002 -6.64498,0.004 -9.96747,0.005 z"
   id="path13143"
   transform="matrix(0.64,0,0,0.64,-7.3514054,-108.58841)" /><path
   style="fill:#4dbedf;fill-opacity:1;stroke:none;stroke-width:9.6895;stroke-linecap:round;stroke-linejoin:bevel;stroke-miterlimit:13.2;stroke-dasharray:none;stroke-opacity:1;paint-order:fill markers stroke"
   d="m 553.11411,543.2875 c 0.43229,6.06891 -0.64287,13.10472 1.17418,18.68933 27.57329,1.14015 55.19526,0.10849 82.78636,0.11016 0.23701,-12.17748 0.47401,-24.35497 0.71102,-36.53245 -28.22385,0 -56.44771,0 -84.67156,0 0,5.91099 0,11.82197 0,17.73296 z"
   id="path13871"
   transform="matrix(0.64,0,0,0.64,-7.3514054,-108.58841)" /><path
   style="fill:#4dbedf;fill-opacity:1;stroke:none;stroke-width:9.6895;stroke-linecap:round;stroke-linejoin:bevel;stroke-miterlimit:13.2;stroke-dasharray:none;stroke-opacity:1;paint-order:fill markers stroke"
   d="m 405.41706,525.85747 c -14.21875,0.11267 -28.4375,0.22533 -42.65624,0.33799 0.581,11.69836 -2.23876,24.20598 0.92382,35.46091 27.82721,1.66208 55.79685,0.31121 83.67764,0.43062 0.23701,-12.18917 0.47401,-24.37833 0.71102,-36.5675 -14.21875,0.11266 -28.43749,0.22532 -42.65624,0.33798 z"
   id="path13944"
   transform="matrix(0.64,0,0,0.64,-7.3514054,-108.58841)" /><path
   style="fill:#4dbedf;fill-opacity:1;stroke:none;stroke-width:9.6895;stroke-linecap:round;stroke-linejoin:bevel;stroke-miterlimit:13.2;stroke-dasharray:none;stroke-opacity:1;paint-order:fill markers stroke"
   d="m 160.87096,543.2875 c 0.4523,6.05621 -0.67675,13.13173 1.1792,18.68182 27.6114,0.93136 55.44267,1.36999 82.98163,-0.17024 3.53011,-10.09725 0.85592,-21.83999 1.72248,-32.53672 -0.27721,-7.79522 -14.29602,-1.84883 -20.50945,-3.70782 -21.79129,0 -43.58257,0 -65.37386,0 0,5.91099 0,11.82197 0,17.73296 z"
   id="path13946"
   transform="matrix(0.64,0,0,0.64,-7.3514054,-108.58841)" /><path
   style="fill:#e59572;fill-opacity:1;stroke:none;stroke-width:1.00645;stroke-linecap:round;stroke-linejoin:bevel;stroke-miterlimit:13.2;stroke-dasharray:none;stroke-opacity:1;paint-order:fill markers stroke"
   d="m 696.78068,622.08278 c -0.87135,1.66201 -1.16234,3.60622 -1.45055,5.45476 -0.46849,4.29684 -0.27094,8.79542 1.30284,12.85831 0.35181,0.50445 0.31045,-0.88555 0.24731,-0.73073 0.0724,-5.77044 0.1348,-11.54684 -0.0319,-17.31525 -0.0215,-0.0757 0.005,-0.2206 -0.0677,-0.26709 z"
   id="path15471"
   transform="matrix(0.64,0,0,0.64,-7.3514054,-108.58841)" /><path
   style="fill:#e59572;fill-opacity:1;stroke:none;stroke-width:1.20352;stroke-linecap:round;stroke-linejoin:bevel;stroke-miterlimit:13.2;stroke-dasharray:none;stroke-opacity:1;paint-order:fill markers stroke"
   d="m 722.81476,742.13185 c -8.38425,0.0171 -16.76849,0.0362 -25.15274,0.0544 -1.284,0.69084 -2.4436,1.95474 -2.20197,3.51799 0.0548,1.21354 -0.12715,2.50508 0.087,3.67061 0.7996,1.40047 2.38804,2.40616 4.02652,2.12555 11.85467,-0.0463 23.71214,0.10788 35.56492,-0.1219 1.82325,0.0107 3.22004,-1.89942 3.03726,-3.64751 0.0329,-1.70406 0.28319,-3.81492 -1.32103,-4.934 -1.23617,-1.00493 -2.97858,-0.48527 -4.43966,-0.65538 -3.20002,-0.0251 -6.4002,-0.0113 -9.60028,-0.01 z"
   id="path15475"
   transform="matrix(0.64,0,0,0.64,-7.3514054,-108.58841)" /><path
   style="fill:#e59572;fill-opacity:1;stroke:#2694ab;stroke-width:8.71536;stroke-linecap:round;stroke-linejoin:bevel;stroke-miterlimit:13.2;stroke-dasharray:none;stroke-opacity:1;paint-order:fill markers stroke"
   d="m 556.67727,705.845 c -22.72254,0.44295 -44.19412,21.37169 -41.24255,44.73838 -0.55455,19.86808 16.54665,37.68182 35.77045,40.66246 23.55786,4.11461 48.19091,-15.12825 48.94492,-39.32483 2.37963,-24.68655 -18.71291,-46.88432 -43.47282,-46.07601 z m 2.52888,24.01195 c 12.09083,-0.005 20.12802,13.09775 16.97703,24.27542 -2.50122,10.96964 -15.02383,16.29375 -25.23022,12.74122 -16.61243,-4.5972 -16.25096,-31.52894 0.20042,-36.03932 2.5918,-0.83514 5.34077,-1.09364 8.05277,-0.97732 z"
   id="path15477"
   transform="matrix(0.64,0,0,0.64,-7.3514054,-108.58841)" /><path
   style="fill:#e59572;fill-opacity:1;stroke:#2694ab;stroke-width:8.71536;stroke-linecap:round;stroke-linejoin:bevel;stroke-miterlimit:13.2;stroke-dasharray:none;stroke-opacity:1;paint-order:fill markers stroke"
   d="m 223.59509,705.85851 c -24.97804,0.47391 -45.50897,25.94713 -40.09948,50.48747 3.74138,25.48308 33.72549,43.05481 57.50887,32.24938 22.08591,-7.97855 33.49133,-35.48226 23.79126,-56.83781 -6.88018,-15.91127 -23.78533,-26.84225 -41.20065,-25.89904 z m 3.18868,23.11345 c 16.11033,0.64866 24.33725,23.46143 11.73462,33.92478 -11.58684,11.46381 -33.84221,1.21475 -32.44754,-15.05166 0.62752,-10.79116 9.98569,-19.13561 20.71292,-18.87312 z"
   id="path15479"
   transform="matrix(0.64,0,0,0.64,-7.3514054,-108.58841)" /><path
   style="fill:#e59572;fill-opacity:1;stroke:none;stroke-width:8.71536;stroke-linecap:round;stroke-linejoin:bevel;stroke-miterlimit:13.2;stroke-dasharray:none;stroke-opacity:1;paint-order:fill markers stroke"
   d="m 70.500054,743.10034 c -4.354604,0.97516 -11.288476,-1.74496 -14.373841,2.074 -1.876806,7.28607 8.043155,4.68244 12.112865,5.3546 9.777324,0.10293 19.55554,0.0344 29.333249,0.0544 2.13349,-9.76916 -6.664945,-7.49695 -13.405526,-7.49431 -4.55559,-0.002 -9.11117,-2.8e-4 -13.666747,0.0113 z"
   id="path15481"
   transform="matrix(0.64,0,0,0.64,-7.3514054,-108.58841)" /></g>































</g></g></g></svg>
